<?xml version="1.0" standalone="no"?>
<!DOCTYPE svg PUBLIC "-//W3C//DTD SVG 20010904//EN"
 "http://www.w3.org/TR/2001/REC-SVG-20010904/DTD/svg10.dtd">
<svg version="1.0" xmlns="http://www.w3.org/2000/svg"
 width="916.000000pt" height="916.000000pt" viewBox="0 0 916.000000 916.000000"
 preserveAspectRatio="xMidYMid meet">
<metadata>
Created by potrace 1.14, written by Peter Selinger 2001-2017
</metadata>
<g transform="translate(0.000000,916.000000) scale(0.100000,-0.100000)"
fill="#000000" stroke="none">
<path d="M3509 8315 c-2 -1 -40 -6 -84 -9 -44 -4 -91 -8 -105 -10 -14 -3 -47
-7 -75 -11 -88 -11 -119 -15 -145 -21 -14 -3 -36 -8 -50 -10 -14 -2 -45 -9
-70 -14 -25 -6 -56 -13 -70 -16 -120 -25 -221 -52 -243 -65 -10 -5 -31 -12
-45 -14 -15 -2 -58 -15 -97 -30 -38 -15 -81 -30 -95 -35 -116 -39 -365 -155
-525 -245 -70 -39 -303 -187 -323 -205 -9 -8 -36 -28 -60 -44 -188 -128 -510
-438 -697 -671 -31 -38 -63 -78 -70 -87 -12 -15 -133 -190 -165 -238 -5 -8
-21 -32 -35 -52 -13 -21 -21 -38 -17 -38 4 0 2 -4 -4 -8 -6 -4 -26 -34 -44
-67 -18 -33 -37 -66 -43 -72 -5 -7 -6 -13 -1 -13 5 0 4 -4 -3 -8 -29 -19 -206
-427 -258 -597 -15 -49 -30 -97 -33 -105 -7 -22 -10 -32 -16 -58 -3 -12 -8
-27 -11 -33 -4 -5 -8 -20 -10 -32 -2 -12 -13 -65 -25 -117 -12 -52 -23 -106
-25 -120 -2 -14 -7 -36 -10 -50 -3 -14 -7 -43 -10 -65 -3 -22 -7 -47 -9 -55
-5 -18 -18 -137 -21 -202 -2 -25 -5 -50 -8 -55 -6 -9 0 -564 6 -608 3 -16 8
-59 12 -95 4 -36 9 -74 11 -85 3 -11 7 -40 9 -65 5 -45 7 -55 18 -100 4 -14 8
-38 11 -55 2 -16 14 -72 26 -122 12 -51 22 -96 22 -100 1 -5 9 -32 19 -60 10
-29 16 -53 13 -53 -2 0 2 -13 11 -30 8 -16 15 -31 14 -32 -4 -6 44 -143 54
-155 5 -7 7 -13 4 -13 -13 0 153 -378 180 -411 7 -8 13 -20 13 -25 0 -5 32
-62 70 -128 39 -65 70 -122 70 -126 0 -5 3 -10 8 -12 4 -1 41 -52 82 -113 41
-60 80 -117 86 -125 7 -8 38 -46 69 -85 63 -80 74 -92 173 -202 89 -99 185
-193 308 -300 79 -69 97 -84 134 -112 19 -14 37 -28 40 -31 3 -4 28 -22 55
-41 28 -18 52 -37 55 -40 12 -14 160 -109 170 -109 5 0 10 -4 10 -9 0 -5 10
-13 23 -17 12 -4 24 -10 27 -14 12 -16 395 -217 430 -226 3 0 19 -7 35 -14 17
-7 32 -14 35 -14 5 -1 162 -63 195 -76 18 -8 60 -22 78 -26 4 -1 8 -2 10 -4 1
-1 9 -3 17 -5 8 -2 53 -15 100 -29 96 -28 277 -72 340 -82 49 -8 85 -14 110
-19 13 -2 39 -6 57 -7 18 -1 33 -5 33 -8 0 -3 19 -6 43 -6 23 -1 71 -5 107 -9
104 -11 573 -14 593 -4 11 7 17 6 17 -1 0 -6 4 -9 9 -6 4 3 37 8 72 12 126 12
218 24 239 29 8 2 33 7 55 10 44 6 66 10 105 19 14 3 36 8 50 10 14 2 54 12
90 21 36 9 72 18 80 20 93 18 369 114 508 177 35 15 66 28 69 28 12 0 268 133
353 182 81 48 250 157 260 168 3 3 17 13 32 22 32 21 259 203 306 245 l32 30
0 1310 c0 1234 -1 1311 -17 1329 -10 11 -32 21 -49 22 -27 3 -39 -5 -95 -69
-35 -40 -73 -82 -84 -95 -11 -12 -40 -46 -65 -74 -25 -29 -50 -57 -55 -64 -6
-6 -46 -51 -89 -101 -43 -49 -103 -118 -134 -153 -30 -35 -64 -75 -76 -90 -11
-14 -32 -38 -46 -52 -14 -15 -47 -53 -75 -85 -27 -32 -55 -63 -60 -69 -6 -6
-40 -45 -75 -86 -36 -41 -77 -88 -91 -105 -15 -16 -60 -68 -100 -115 -41 -47
-76 -87 -79 -90 -3 -3 -36 -41 -74 -85 -83 -97 -144 -140 -214 -153 -115 -21
-205 20 -299 134 -17 22 -40 48 -50 59 -34 38 -98 111 -158 180 -33 38 -69 79
-80 91 -11 12 -34 40 -52 61 -18 21 -46 54 -63 73 -17 19 -55 62 -83 95 -29
33 -119 136 -201 230 -183 210 -233 268 -282 325 -22 25 -49 56 -61 70 -12 14
-31 36 -43 50 -103 120 -138 140 -185 104 -20 -15 -20 -28 -22 -1357 -1 -738
-2 -1349 -2 -1358 -1 -14 -12 -16 -73 -13 -76 4 -137 11 -238 29 -88 15 -235
63 -329 108 -254 119 -456 311 -574 545 -41 81 -93 222 -103 282 -7 39 -14 73
-21 100 -9 38 -11 4109 -1 4155 21 100 97 194 194 240 59 28 158 38 236 24 23
-4 59 -10 78 -14 19 -4 78 -27 130 -53 88 -43 106 -57 240 -192 80 -80 226
-230 325 -334 99 -103 221 -230 270 -281 50 -51 167 -173 260 -271 94 -97 197
-205 230 -239 33 -34 148 -153 255 -265 577 -600 587 -610 612 -611 13 0 32
-2 42 -4 41 -8 87 28 251 200 94 97 199 207 235 244 91 95 454 472 520 541 30
32 139 145 242 251 248 258 316 329 493 514 83 87 161 168 174 181 l24 23 -55
69 c-52 64 -173 196 -244 266 -113 112 -279 255 -376 325 -27 19 -48 38 -48
42 0 4 -10 11 -22 15 -13 4 -25 10 -28 13 -7 9 -109 81 -115 81 -3 0 -27 15
-53 33 -26 18 -54 36 -62 40 -8 4 -28 15 -45 26 -86 52 -247 136 -257 134 -3
-1 -12 4 -18 12 -7 8 -16 15 -21 15 -5 0 -37 13 -71 28 -35 16 -101 43 -148
61 -47 18 -94 37 -105 42 -61 26 -416 127 -470 133 -11 2 -29 6 -40 9 -11 4
-34 9 -50 11 -17 3 -41 7 -55 10 -14 3 -44 8 -65 10 -22 3 -53 8 -70 10 -16 3
-52 8 -80 11 -27 3 -72 8 -100 11 -58 6 -571 15 -576 9z"/>
<path d="M8353 6499 c-13 -5 -32 -23 -43 -41 -18 -30 -20 -51 -20 -236 0 -211
4 -233 44 -262 30 -21 31 -21 242 -22 295 -2 287 -10 282 299 l-3 213 -28 27
-27 28 -213 1 c-116 1 -222 -2 -234 -7z"/>
<path d="M7430 5723 c-49 -21 -97 -73 -110 -121 -7 -26 -10 -161 -10 -373 1
-308 2 -334 20 -368 29 -54 41 -66 88 -90 42 -21 53 -22 386 -22 399 -1 402 0
466 91 19 27 25 49 27 105 1 38 3 72 4 75 2 9 1 75 -1 85 -1 6 -1 15 0 20 4
23 2 94 -4 103 -3 6 -2 13 3 17 7 3 7 15 1 29 -5 13 -6 26 -3 29 10 10 3 271
-9 306 -14 46 -62 96 -106 114 -54 21 -701 21 -752 0z"/>
<path d="M8469 4614 c-23 -9 -44 -29 -57 -53 -21 -37 -22 -50 -22 -320 0 -206
3 -287 13 -304 17 -30 47 -57 77 -69 14 -5 145 -9 299 -9 303 1 322 5 360 64
19 29 20 50 21 315 1 309 -2 326 -58 367 -25 19 -44 20 -312 22 -232 1 -292
-1 -321 -13z"/>
<path d="M7220 3654 c-53 -19 -112 -77 -127 -128 -6 -20 -10 -63 -10 -96 1
-33 -1 -60 -5 -60 -4 0 -3 -13 2 -29 4 -16 7 -31 5 -33 -5 -4 -6 -76 -4 -140
1 -27 -1 -51 -4 -54 -3 -4 -2 -14 3 -24 5 -10 7 -19 5 -21 -4 -5 -6 -67 -4
-139 0 -25 0 -49 -1 -55 -1 -5 -1 -14 0 -20 1 -5 1 -66 1 -135 -1 -69 -2 -129
-2 -135 0 -29 12 -85 24 -106 26 -48 42 -69 54 -69 7 0 13 -4 13 -9 0 -10 41
-27 87 -36 18 -4 99 -6 180 -6 82 1 157 1 168 1 33 1 229 1 245 1 8 0 87 -1
175 -1 171 -1 212 3 255 25 40 21 87 79 99 122 14 49 15 964 1 1013 -14 50
-62 104 -114 128 -43 21 -58 21 -523 21 -406 0 -485 -2 -523 -15z"/>
</g>
</svg>
