<svg xmlns="http://www.w3.org/2000/svg" xmlns:xlink="http://www.w3.org/1999/xlink" viewBox="0 0 750 500"><defs><style>.cls-1,.cls-2,.cls-21,.cls-7{fill:none;}.cls-2,.cls-21{stroke:#fff;}.cls-2,.cls-21,.cls-7{stroke-linecap:round;}.cls-2{stroke-miterlimit:10;stroke-width:2px;}.cls-3{isolation:isolate;}.cls-4{fill:url(#linear-gradient);}.cls-5{clip-path:url(#clip-path);}.cls-6{opacity:0.51;}.cls-7{stroke:#60e4ff;stroke-width:0.75px;}.cls-21,.cls-7{stroke-linejoin:round;}.cls-8{mix-blend-mode:overlay;}.cls-9{fill:url(#linear-gradient-2);}.cls-10{fill:url(#linear-gradient-3);}.cls-11{fill:url(#linear-gradient-4);}.cls-12,.cls-14,.cls-15,.cls-16,.cls-17,.cls-23,.cls-25,.cls-26,.cls-27,.cls-28,.cls-29{opacity:0.5;}.cls-12{fill:url(#linear-gradient-5);}.cls-13{fill:url(#linear-gradient-6);}.cls-14{fill:url(#linear-gradient-7);}.cls-15{fill:url(#linear-gradient-8);}.cls-16{fill:url(#linear-gradient-9);}.cls-17{fill:url(#linear-gradient-10);}.cls-18{fill:url(#linear-gradient-11);}.cls-19{fill:url(#linear-gradient-12);}.cls-20{fill:url(#linear-gradient-13);}.cls-22{fill:url(#linear-gradient-14);}.cls-23{fill:url(#linear-gradient-15);}.cls-24{fill:url(#linear-gradient-16);}.cls-25{fill:url(#linear-gradient-17);}.cls-26{fill:url(#linear-gradient-18);}.cls-27{fill:url(#linear-gradient-19);}.cls-28{fill:url(#linear-gradient-20);}.cls-29{fill:url(#linear-gradient-21);}.cls-30{fill:url(#linear-gradient-22);}.cls-31{opacity:0.75;}.cls-32{fill:#fff;}.cls-33{fill:url(#Unnamed_Pattern_3);}.cls-34{fill:url(#Unnamed_Pattern_3-3);}</style><linearGradient id="linear-gradient" x1="87.19" y1="-142.15" x2="586.88" y2="538.69" gradientUnits="userSpaceOnUse"><stop offset="0" stop-color="#5dd5f5"/><stop offset="0.32" stop-color="#2c0063"/><stop offset="0.42" stop-color="#300065"/><stop offset="0.51" stop-color="#3c006c"/><stop offset="0.61" stop-color="#4f0078"/><stop offset="0.71" stop-color="#6a0088"/><stop offset="0.8" stop-color="#8e009c"/><stop offset="0.9" stop-color="#b900b6"/><stop offset="0.99" stop-color="#eb00d3"/><stop offset="1" stop-color="#f200d7"/></linearGradient><clipPath id="clip-path"><rect class="cls-1" width="750" height="500"/></clipPath><linearGradient id="linear-gradient-2" x1="-157.77" y1="-2594.59" x2="-96.06" y2="-2489.26" gradientTransform="translate(2562.71 364.35) rotate(-90)" gradientUnits="userSpaceOnUse"><stop offset="0" stop-color="#f200d7"/><stop offset="1" stop-color="#9600a9"/></linearGradient><linearGradient id="linear-gradient-3" x1="-142.43" y1="-2464.37" x2="-82.29" y2="-2361.73" xlink:href="#linear-gradient-2"/><linearGradient id="linear-gradient-4" x1="7.94" y1="-2464.68" x2="37.87" y2="-2413.59" xlink:href="#linear-gradient-2"/><linearGradient id="linear-gradient-5" x1="-52.46" y1="-2619.86" x2="38.63" y2="-2464.37" gradientTransform="translate(2562.71 364.35) rotate(-90)" gradientUnits="userSpaceOnUse"><stop offset="0" stop-color="#f200d7"/><stop offset="1" stop-color="#fff" stop-opacity="0"/></linearGradient><linearGradient id="linear-gradient-6" x1="-15.19" y1="-2582.32" x2="30.36" y2="-2504.58" xlink:href="#linear-gradient-2"/><linearGradient id="linear-gradient-7" x1="37.8" y1="-2594.33" x2="98.65" y2="-2490.48" xlink:href="#linear-gradient-5"/><linearGradient id="linear-gradient-8" x1="-81.92" y1="-2516.33" x2="-21.08" y2="-2412.48" xlink:href="#linear-gradient-5"/><linearGradient id="linear-gradient-9" x1="-188.08" y1="-2386" x2="-127.24" y2="-2282.14" xlink:href="#linear-gradient-5"/><linearGradient id="linear-gradient-10" x1="-218.29" y1="-2647.2" x2="-157.44" y2="-2543.35" xlink:href="#linear-gradient-5"/><linearGradient id="linear-gradient-11" x1="67.44" y1="-2557.35" x2="121.73" y2="-2464.69" xlink:href="#linear-gradient-2"/><linearGradient id="linear-gradient-12" x1="-319.04" y1="-3203.63" x2="-257.33" y2="-3098.3" gradientTransform="translate(-2436.42 296.48) rotate(90)" xlink:href="#linear-gradient-2"/><linearGradient id="linear-gradient-13" x1="-303.7" y1="-3073.4" x2="-243.56" y2="-2970.76" gradientTransform="translate(-2436.42 296.48) rotate(90)" xlink:href="#linear-gradient-2"/><linearGradient id="linear-gradient-14" x1="-153.33" y1="-3073.71" x2="-123.4" y2="-3022.63" gradientTransform="translate(-2436.42 296.48) rotate(90)" xlink:href="#linear-gradient-2"/><linearGradient id="linear-gradient-15" x1="-213.73" y1="-3228.89" x2="-122.63" y2="-3073.4" gradientTransform="translate(-2436.42 296.48) rotate(90)" xlink:href="#linear-gradient-5"/><linearGradient id="linear-gradient-16" x1="-176.46" y1="-3191.36" x2="-130.91" y2="-3113.61" gradientTransform="translate(-2436.42 296.48) rotate(90)" xlink:href="#linear-gradient-2"/><linearGradient id="linear-gradient-17" x1="-123.46" y1="-3203.36" x2="-62.62" y2="-3099.51" gradientTransform="translate(-2436.42 296.48) rotate(90)" xlink:href="#linear-gradient-5"/><linearGradient id="linear-gradient-18" x1="-243.19" y1="-3125.36" x2="-182.35" y2="-3021.51" gradientTransform="translate(-2436.42 296.48) rotate(90)" xlink:href="#linear-gradient-5"/><linearGradient id="linear-gradient-19" x1="-63.78" y1="-3281.36" x2="-2.94" y2="-3177.51" gradientTransform="translate(-2436.42 296.48) rotate(90)" xlink:href="#linear-gradient-5"/><linearGradient id="linear-gradient-20" x1="-349.35" y1="-2995.03" x2="-288.51" y2="-2891.18" gradientTransform="translate(-2436.42 296.48) rotate(90)" xlink:href="#linear-gradient-5"/><linearGradient id="linear-gradient-21" x1="-379.55" y1="-3256.23" x2="-318.71" y2="-3152.38" gradientTransform="translate(-2436.42 296.48) rotate(90)" xlink:href="#linear-gradient-5"/><linearGradient id="linear-gradient-22" x1="-93.83" y1="-3166.38" x2="-39.54" y2="-3073.73" gradientTransform="translate(-2436.42 296.48) rotate(90)" xlink:href="#linear-gradient-2"/><pattern id="Unnamed_Pattern_3" data-name="Unnamed Pattern 3" width="22.99" height="39.08" patternTransform="translate(6.88 22.88) scale(0.45)" patternUnits="userSpaceOnUse" viewBox="0 0 22.99 39.08"><rect class="cls-1" width="22.99" height="39.08"/><line class="cls-2" x1="45.98" y1="39.08" x2="22.99" y2="78.16"/><line class="cls-2" x1="22.99" y1="39.08" y2="78.16"/><line class="cls-2" y1="39.08" x2="-22.99" y2="78.16"/><line class="cls-2" x1="45.98" x2="22.99" y2="39.08"/><line class="cls-2" x1="22.99" y2="39.08"/><line class="cls-2" x2="-22.99" y2="39.08"/><line class="cls-2" x1="45.98" y1="-39.08" x2="22.99"/><line class="cls-2" x1="22.99" y1="-39.08"/><line class="cls-2" y1="-39.08" x2="-22.99"/></pattern><pattern id="Unnamed_Pattern_3-3" data-name="Unnamed Pattern 3" width="22.99" height="39.08" patternTransform="translate(0.69 60.58) scale(0.45)" patternUnits="userSpaceOnUse" viewBox="0 0 22.99 39.08"><rect class="cls-1" width="22.99" height="39.08"/><line class="cls-2" x1="45.98" y1="39.08" x2="22.99" y2="78.16"/><line class="cls-2" x1="22.99" y1="39.08" y2="78.16"/><line class="cls-2" y1="39.08" x2="-22.99" y2="78.16"/><line class="cls-2" x1="45.98" x2="22.99" y2="39.08"/><line class="cls-2" x1="22.99" y2="39.08"/><line class="cls-2" x2="-22.99" y2="39.08"/><line class="cls-2" x1="45.98" y1="-39.08" x2="22.99"/><line class="cls-2" x1="22.99" y1="-39.08"/><line class="cls-2" y1="-39.08" x2="-22.99"/></pattern></defs><g class="cls-3"><g id="BACKGROUND"><rect class="cls-4" width="750" height="500"/></g><g id="OBJECTS"><g class="cls-5"><g class="cls-6"><path class="cls-7" d="M-130.41,220.87c35.94,6.4,65.16-1.69,90.53-16.5,13.68-8,26.74-17.82,40.12-28.3,3.89-3,7.75-6.14,11.68-9.16a971.65,971.65,0,0,0,88.17-77.08C110,80.14,119.93,69.76,130.43,60,144,47.29,158.35,35.42,174.49,27.09c46.95-24.26,84.64-15,125.23-1.26,24.45,8.3,49.44,19.3,77.34,26.22a108.11,108.11,0,0,0,52.36.26C466.61,43.2,498.3,15.37,530.58-7.75c32.6-23.45,55.61-40.79,97.48-40.95,49.8-.19,86.27-3.65,120.18-39.89"/><path class="cls-7" d="M-129.41,211.81c35.33,5.55,64.87-2,90.13-16,13.65-7.52,26.73-16.75,40.1-26.64,3.89-2.88,7.76-5.8,11.7-8.64,30.54-22,60.11-47.55,88.34-75.28,9.83-9.65,19.75-20,30.18-29.77,13.47-12.63,27.7-24.53,43.66-33,46.22-24.46,83.55-16.39,124-3.62,24.46,7.71,49.38,18.53,77,25.67a111.8,111.8,0,0,0,51.82,1.27c36.8-8,68.55-34.17,101-56.76,32.68-22.89,55.41-40.95,96.91-41.54,49.17-.71,86.18-3.5,119.85-39.3"/><path class="cls-7" d="M-128.41,202.76c34.72,4.69,64.59-2.39,89.73-15.42C-25,180.27-12,171.65,1.4,162.35c3.9-2.7,7.77-5.47,11.72-8.12,30.8-20.71,60.38-45.85,88.51-73.48,9.79-9.61,19.66-19.92,30-29.67C145,38.49,159.13,26.56,174.92,18,220.39-6.67,257.38.25,297.72,12c24.47,7.13,49.31,17.77,76.71,25.12A115.6,115.6,0,0,0,425.7,39.4C462.11,32.59,493.91,8,526.47-14c32.76-22.33,55.21-41.11,96.32-42.14,48.56-1.21,86.11-3.35,119.53-38.7"/><path class="cls-7" d="M-127.42,193.71c34.12,3.83,64.32-2.75,89.34-14.89,13.6-6.6,26.69-14.62,40.07-23.32,3.9-2.54,7.76-5.14,11.73-7.62,31.08-19.41,60.65-44.14,88.68-71.66,9.75-9.57,19.57-19.85,29.87-29.58,13.3-12.55,27.25-24.51,42.87-33.19,44.73-24.86,81.37-19.1,121.58-8.37,24.49,6.55,49.24,17.06,76.4,24.57A119.37,119.37,0,0,0,423.84,33c36-5.66,67.88-28.63,100.57-50.14,32.84-21.78,55-41.28,95.75-42.74,47.93-1.71,86-3.2,119.2-38.11"/><path class="cls-7" d="M-126.42,184.65c33.5,3,64-3.09,88.94-14.35A379.17,379.17,0,0,0,2.57,148.64c3.91-2.36,7.77-4.81,11.75-7.1,31.37-18.13,60.92-42.44,88.85-69.86,9.72-9.53,19.48-19.78,29.71-29.48,13.21-12.51,27-24.5,42.47-33.3,44-25.06,80.3-20.46,120.37-10.73,24.51,6,49.17,16.3,76.09,24C390,27.4,406.58,28.41,422,26.5,457.61,22.06,489.53.64,522.35-20.34c32.93-21.21,54.81-41.44,95.17-43.33,47.32-2.22,86-3.06,118.87-37.51"/><path class="cls-7" d="M-125.42,175.6c32.89,2.13,63.76-3.45,88.54-13.82a387.79,387.79,0,0,0,40-20c3.91-2.2,7.78-4.48,11.77-6.6,31.68-16.83,61.19-40.74,89-68,9.68-9.49,19.39-19.7,29.56-29.38,13.12-12.48,26.8-24.49,42.07-33.4,43.26-25.25,79.22-21.83,119.15-13.11,24.53,5.36,49.11,15.54,75.78,23.47,18,5.35,34.37,6.74,49.62,5.32,35.23-3.27,67.27-23,100.18-43.52s54.6-41.6,94.59-43.93c46.69-2.72,85.86-2.91,118.54-36.92"/><path class="cls-7" d="M-124.42,166.55c32.28,1.27,63.49-3.8,88.15-13.29a400.72,400.72,0,0,0,40-18.33c3.91-2,7.79-4.15,11.77-6.08,32-15.54,61.47-39,89.2-66.24,9.64-9.46,19.3-19.64,29.4-29.29,13-12.44,26.58-24.48,41.68-33.51,42.53-25.44,78.14-23.19,117.92-15.47C318.27-10.9,342.76-.89,369.19,7.25c17.76,5.48,34,7.26,49.07,6.34,34.84-2.12,66.94-20.24,100-40.22s54.4-41.76,94-44.53c46.08-3.22,85.78-2.76,118.22-36.32"/><path class="cls-7" d="M-123.43,157.49c31.68.42,63.23-4.14,87.76-12.75a415.39,415.39,0,0,0,40-16.66c3.92-1.86,7.8-3.82,11.79-5.58,32.33-14.23,61.74-37.32,89.37-64.43,9.6-9.41,19.21-19.56,29.25-29.19C147.67,16.48,161.08,4.41,176-4.74c41.79-25.62,77.06-24.56,116.7-17.84,24.58,4.17,49,14,75.17,22.37,17.55,5.6,33.59,7.76,48.52,7.35,34.44-1,66.61-17.47,99.79-36.91s54.19-41.92,93.43-45.13c45.45-3.72,85.7-2.61,117.88-35.73"/><path class="cls-7" d="M-122.43,148.44c31.06-.44,63-4.48,87.36-12.22,13.5-4.27,26.61-9.28,40-15,3.93-1.68,7.82-3.48,11.81-5.06,32.66-12.92,62-35.62,89.54-62.63,9.56-9.37,19.12-19.49,29.09-29.09C148.19,12.08,161.47,0,176.22-9.28c41.06-25.81,76-25.94,115.49-20.21,24.6,3.56,48.92,13.25,74.86,21.81,17.33,5.73,33.2,8.28,48,8.36,34,.2,66.28-14.69,99.59-33.6S568.12-75,607-78.64c44.83-4.21,85.62-2.46,117.56-35.14"/><path class="cls-7" d="M-121.43,139.38c30.45-1.29,62.69-4.82,87-11.68,13.48-3.8,26.6-8.21,40-13.34,3.93-1.51,7.82-3.14,11.82-4.54C50.32,98.21,79.59,75.89,107,49c9.52-9.34,19-19.42,28.94-29,12.76-12.32,25.9-24.44,40.48-33.83,40.33-26,74.92-27.32,114.27-22.58,24.63,3,48.86,12.49,74.54,21.27,17.13,5.85,32.82,8.78,47.43,9.37,33.65,1.35,65.95-11.92,99.4-30.3s53.78-42.22,92.27-46.31c44.2-4.71,85.54-2.32,117.23-34.54"/><path class="cls-7" d="M-120.44,130.33c29.85-2.15,62.44-5.16,86.57-11.14C-20.4,115.85-7.28,112,6.07,107.51c3.94-1.34,7.84-2.81,11.84-4,33.37-10.27,62.55-32.21,89.88-59,9.48-9.3,18.94-19.34,28.78-28.9,12.68-12.29,25.68-24.42,40.09-33.94,39.6-26.15,73.85-28.7,113-24.95C314.37-41,338.5-31.6,363.94-22.61c16.92,6,32.43,9.3,46.88,10.39,33.25,2.5,65.62-9.15,99.2-27s53.58-42.37,91.69-46.91c43.59-5.2,85.46-2.17,116.91-33.95"/><path class="cls-7" d="M-119.44,121.28c29.24-3,62.18-5.5,86.17-10.61,13.45-2.87,26.59-6.08,39.92-10,3.95-1.16,7.86-2.46,11.86-3.52,33.74-8.93,62.82-30.51,90.05-57.21,9.44-9.25,18.85-19.27,28.63-28.8,12.58-12.25,25.45-24.4,39.68-34C215.75-49.25,249.66-53,288.71-50.24c24.68,1.75,48.73,11,73.92,20.16,16.71,6.11,32,9.81,46.32,11.4C441.81-15,474.25-25,508-42.36c33.53-17.21,53.37-42.52,91.11-47.51,43-5.68,85.37-2,116.57-33.35"/><path class="cls-7" d="M-118.44,112.22c28.62-3.85,61.92-5.82,85.78-10.07,13.43-2.4,26.57-5,39.9-8.35,3.95-1,7.87-2.13,11.87-3C53.22,83.21,82.2,62,109.33,35.39c9.4-9.22,18.76-19.2,28.47-28.71C150.3-5.53,163-17.7,177.09-27.47,215.24-54,248.82-59,287.7-57.16,312.42-56,336.38-47,361.32-37.54c16.49,6.23,31.65,10.32,45.77,12.41,32.46,4.81,65-3.6,98.82-20.37,33.62-16.66,53.17-42.67,90.53-48.11,42.34-6.17,85.3-1.87,116.25-32.76"/><path class="cls-7" d="M-117.45,103.17c28-4.71,61.67-6.15,85.39-9.54C-18.64,91.71-5.5,89.7,7.82,86.94c4-.82,7.89-1.78,11.89-2.5,34.49-6.2,63.36-27.1,90.39-53.59,9.36-9.18,18.67-19.13,28.32-28.61,12.4-12.17,25-24.36,38.89-34.26,37.42-26.66,70.66-32.89,109.39-32,24.75.53,48.61,9.42,73.31,19.06a250.92,250.92,0,0,0,45.22,13.42c32.06,6,64.64-.82,98.62-17.06,33.7-16.1,53-42.81,90-48.7C635.52-104,679-99.08,709.73-129.51"/><path class="cls-7" d="M-116.45,94.12c27.41-5.57,61.42-6.48,85-9,13.41-1.44,26.55-2.85,39.86-5,4-.64,7.91-1.43,11.9-2,34.89-4.82,63.64-25.4,90.57-51.79,9.33-9.14,18.57-19,28.16-28.5,12.32-12.14,24.78-24.35,38.49-34.37,36.7-26.83,69.6-34.3,108.18-34.43,24.78-.09,48.55,8.66,73,18.52A292.12,292.12,0,0,0,403.37-38c31.66,7.11,64.3,1.95,98.43-13.75,33.78-15.54,52.76-42.95,89.37-49.3,41.09-7.13,85.13-1.58,115.59-31.57"/><path class="cls-7" d="M-115.45,85.06c26.8-6.42,61.16-6.79,84.59-8.47,13.4-1,26.55-1.78,39.85-3.36,4-.47,7.92-1.09,11.91-1.48,35.27-3.41,63.91-23.69,90.73-50,9.3-9.1,18.49-19,28-28.41,12.22-12.1,24.56-24.33,38.09-34.48,36-27,68.54-35.7,107-36.8,24.81-.7,48.49,7.9,72.69,18a347.82,347.82,0,0,0,44.12,15.45q46.89,12.38,98.23-10.45c33.86-15,52.56-43.09,88.8-49.9,40.47-7.6,85.05-1.43,115.26-31"/><path class="cls-7" d="M-114.45,76c26.18-7.28,60.91-7.11,84.19-7.94,13.39-.47,26.54-.7,39.83-1.7,4-.3,7.94-.74,11.93-1,35.66-2,64.18-22,90.9-48.17,9.26-9.06,18.4-18.91,27.86-28.31C152.4-23.14,164.6-35.38,178-45.66c35.26-27.13,67.47-37.11,105.74-39.16,24.84-1.33,48.42,7.12,72.37,17.41a426.47,426.47,0,0,0,43.58,16.46c30.87,9.4,63.64,7.49,98-7.13,33.93-14.43,52.35-43.23,88.21-50.5,39.85-8.07,85-1.28,114.94-30.38"/><path class="cls-7" d="M-113.46,67c25.58-8.14,60.66-7.42,83.8-7.41,13.39,0,26.53.38,39.81,0,4-.13,8-.4,12-.46,36-.55,64.45-20.28,91.07-46.36,9.22-9,18.31-18.83,27.71-28.21,12-12,24.12-24.28,37.29-34.69,34.55-27.29,66.41-38.54,104.53-41.54,24.86-2,48.36,6.36,72.06,16.87,15.45,6.84,29.7,12.86,43,17.47,30.47,10.55,63.31,10.25,97.84-3.83,34-13.87,52.15-43.36,87.64-51.09,39.22-8.55,84.89-1.14,114.6-29.79"/><path class="cls-7" d="M-112.46,57.9c25-9,60.4-7.72,83.41-6.86,13.37.49,26.52,1.45,39.79,1.62,4,.05,8,0,12,.06,36.42.9,64.72-18.58,91.24-44.55,9.18-9,18.22-18.77,27.55-28.12,12-12,23.91-24.26,36.9-34.8,33.84-27.44,65.34-40,103.31-43.9,24.89-2.59,48.3,5.58,71.75,16.31,15.23,7,29.31,13.37,42.48,18.49,30.07,11.69,63,13,97.65-.53,34.09-13.31,51.94-43.49,87.05-51.68,38.61-9,84.81-1,114.28-29.19"/><path class="cls-7" d="M-111.46,48.85c24.36-9.84,60.15-8,83-6.33,13.36,1,26.51,2.54,39.77,3.29,4,.22,8,.31,12,.56,36.8,2.38,65-16.87,91.41-42.74,9.14-8.94,18.13-18.69,27.4-28,11.87-12,23.68-24.23,36.5-34.91,33.12-27.58,64.27-41.39,102.08-46.27,24.93-3.22,48.25,4.81,71.45,15.76,15,7.09,28.92,13.88,41.93,19.5,29.68,12.84,62.64,15.79,97.45,2.79,34.17-12.76,51.74-43.62,86.48-52.29,38-9.47,84.72-.83,114-28.59"/><path class="cls-7" d="M-110.47,39.79C-86.72,29.1-50.57,31.47-27.85,34c13.34,1.48,26.5,3.62,39.75,5,4,.4,8,.67,12,1.08C61.06,43.89,89.16,24.86,115.48-.9c9.1-8.91,18-18.63,27.24-27.93,11.78-11.91,23.47-24.21,36.11-35,32.41-27.73,63.2-42.83,100.86-48.65,24.95-3.85,48.19,4,71.14,15.22,14.81,7.21,28.53,14.38,41.38,20.51,29.28,14,62.31,18.55,97.26,6.09,34.24-12.2,51.53-43.74,85.89-52.88,37.37-9.94,84.65-.69,113.63-28"/><path class="cls-7" d="M-109.47,30.74c23.14-11.55,59.64-8.61,82.22-5.26,13.33,2,26.49,4.71,39.74,6.61,4,.58,8,1,12,1.6C62,39.05,90,20.22,116.25-5.44c9.06-8.87,17.95-18.55,27.09-27.83C155-45.14,166.59-57.45,179-68.39c31.71-27.87,62.13-44.26,99.65-51,25-4.49,48.12,3.27,70.83,14.66,14.6,7.33,28.14,14.89,40.83,21.53,28.89,15.11,62,21.31,97.06,9.4,34.32-11.66,51.34-43.87,85.32-53.48,36.75-10.4,84.56-.54,113.29-27.41"/><path class="cls-7" d="M-108.47,21.69C-85.94,9.28-49.1,12.78-26.65,17c13.32,2.48,26.48,5.79,39.72,8.28,4,.75,8,1.38,12,2.1C63,34.22,90.9,15.58,117-10c9-8.83,17.86-18.48,26.93-27.73,11.6-11.84,23-24.15,35.31-35.23,31-28,61.05-45.7,98.43-53.38,25-5.13,48.06,2.5,70.52,14.12,14.39,7.44,27.75,15.38,40.28,22.53C417-73.41,450.13-65.59,485.36-77c34.39-11.1,51.13-44,84.73-54.07,36.14-10.85,84.49-.4,113-26.81"/><path class="cls-7" d="M-107.47,12.63C-85.55-.63-48.36,3.45-26,8.44c13.3,3,26.47,6.88,39.7,9.94,4,.93,8.06,1.74,12,2.62,38.22,8.4,66.08-10.06,92.1-35.51,9-8.79,17.77-18.41,26.78-27.64,11.51-11.8,22.83-24.12,34.91-35.33,30.31-28.15,60-47.15,97.21-55.75,25-5.78,48,1.72,70.21,13.56,14.18,7.57,27.36,15.89,39.73,23.55,28.1,17.4,61.3,26.84,96.67,16,34.48-10.56,50.94-44.1,84.16-54.68C603-146.08,651.86-135,680.1-161"/><path class="cls-7" d="M-106.48,3.58c21.31-14.12,58.85-9.47,81-3.66C-12.16,3.4,1,7.89,14.24,11.53c4,1.1,8.06,2.09,12,3.12C64.83,24.59,92.64,6.3,118.56-19c9-8.75,17.68-18.33,26.62-27.54C156.6-58.35,167.8-70.67,179.69-82c29.62-28.28,58.9-48.6,96-58.12,25-6.43,47.95,1,69.89,13,14,7.69,27,16.4,39.19,24.57C412.48-84,445.72-73,481.24-83.25c34.54-10.07,50.75-44.21,83.58-55.27,34.91-11.75,84.32-.1,112.31-25.62"/><path class="cls-7" d="M-105.48-5.47c20.7-15,58.58-9.75,80.64-3.13C-11.58-4.61,1.6.46,14.82,4.67c4,1.29,8.07,2.46,12.07,3.64,38.85,11.48,66.62-6.65,92.44-31.9C128.24-32.3,136.92-41.85,145.8-51c11.33-11.72,22.41-24,34.11-35.54,28.93-28.42,57.81-50.06,94.77-60.5,25.06-7.07,47.9.17,69.59,12.47,13.78,7.8,26.61,16.88,38.64,25.57,27.36,19.63,60.62,32.31,96.28,22.63,34.61-9.51,50.55-44.32,83-55.86,34.29-12.2,84.24,0,112-25"/><path class="cls-7" d="M-104.48-14.53c20.09-15.82,58.3-10,80.24-2.58C-11-12.63,2.19-7,15.4-2.19,19.44-.72,23.49.63,27.49,2,66.64,15,94.38-3,120.1-28.12c8.87-8.68,17.5-18.19,26.31-27.35,11.25-11.68,22.2-24,33.72-35.65,28.24-28.54,56.72-51.51,93.55-62.86,25.07-7.73,47.84-.61,69.28,11.91,13.57,7.92,26.22,17.39,38.09,26.59,27,20.77,60.29,35.07,96.08,25.94,34.7-9,50.36-44.43,82.42-56.46,33.69-12.64,84.16.19,111.66-24.44"/><path class="cls-7" d="M-103.49-23.58c19.49-16.68,58-10.31,79.85-2.05C-10.43-20.64,2.77-14.4,16-9c4,1.64,8.09,3.18,12.1,4.66C67.53,10.2,95.25-7.62,120.87-32.66c8.83-8.63,17.41-18.12,26.15-27.25,11.16-11.64,22-24,33.32-35.76,27.56-28.67,55.64-53,92.34-65.23,25.09-8.38,47.81-1.42,69,11.36,13.37,8,25.83,17.9,37.54,27.61,26.57,21.92,60,37.84,95.89,29.24,34.77-8.4,50.17-44.53,81.84-57.05,33.08-13.09,84.08.34,111.33-23.84"/></g><g class="cls-8"><polygon class="cls-9" points="72.9 522.04 20.2 552.47 -32.51 522.04 -32.51 461.18 20.2 430.75 72.9 461.18 72.9 522.04"/><polygon class="cls-10" points="200.45 506.7 149.09 536.36 97.73 506.7 97.73 447.39 149.09 417.74 200.45 447.39 200.45 506.7"/><polygon class="cls-11" points="148.85 356.37 123.29 371.13 97.73 356.37 97.73 326.86 123.29 312.1 148.85 326.86 148.85 356.37"/><polygon class="cls-12" points="97.54 416.7 19.73 461.62 -58.08 416.7 -58.08 326.85 19.73 281.93 97.54 326.85 97.54 416.7"/><polygon class="cls-13" points="57.73 379.48 18.83 401.94 -20.08 379.48 -20.08 334.56 18.83 312.1 57.73 334.56 57.73 379.48"/><polygon class="cls-14" points="71.7 326.47 19.73 356.47 -32.23 326.47 -32.23 266.46 19.73 236.46 71.7 266.46 71.7 326.47"/><polygon class="cls-15" points="149.7 446.19 97.73 476.2 45.76 446.19 45.76 386.19 97.73 356.19 149.7 386.19 149.7 446.19"/><polygon class="cls-16" points="280.03 552.36 228.06 582.36 176.1 552.36 176.1 492.35 228.06 462.35 280.03 492.35 280.03 552.36"/><polygon class="cls-17" points="18.83 582.56 -33.14 612.56 -85.11 582.56 -85.11 522.55 -33.14 492.55 18.83 522.55 18.83 582.56"/><polygon class="cls-18" points="97.54 296.84 51.17 323.61 4.81 296.84 4.81 243.3 51.17 216.53 97.54 243.3 97.54 296.84"/></g><g class="cls-8"><polygon class="cls-19" points="662.42 -22.48 715.13 -52.91 767.84 -22.48 767.84 38.39 715.13 68.82 662.42 38.39 662.42 -22.48"/><polygon class="cls-20" points="534.87 -7.14 586.24 -36.79 637.6 -7.14 637.6 52.17 586.24 81.83 534.87 52.17 534.87 -7.14"/><polygon class="cls-21" points="-6.9 236.73 51.36 203.1 109.62 236.73 109.62 304 51.36 337.64 -6.9 304 -6.9 236.73"/><polygon class="cls-21" points="86.32 436.63 148.63 400.66 210.94 436.63 210.94 508.58 148.63 544.56 86.32 508.58 86.32 436.63"/><polygon class="cls-21" points="621.84 193.52 684.15 157.54 746.46 193.52 746.46 265.47 684.15 301.44 621.84 265.47 621.84 193.52"/><polygon class="cls-21" points="654.19 -28.96 716.5 -64.94 778.81 -28.96 778.81 42.99 716.5 78.97 654.19 42.99 654.19 -28.96"/><polygon class="cls-21" points="583.45 141.45 612.03 124.94 640.62 141.45 640.62 174.46 612.03 190.96 583.45 174.46 583.45 141.45"/><polygon class="cls-21" points="91.99 324.23 123.39 306.11 154.79 324.23 154.79 360.49 123.39 378.61 91.99 360.49 91.99 324.23"/><polygon class="cls-22" points="586.47 143.19 612.03 128.44 637.6 143.19 637.6 172.71 612.03 187.47 586.47 172.71 586.47 143.19"/><polygon class="cls-23" points="637.79 82.87 715.59 37.94 793.4 82.87 793.4 172.71 715.59 217.63 637.79 172.71 637.79 82.87"/><polygon class="cls-24" points="677.59 120.08 716.5 97.62 755.4 120.08 755.4 165.01 716.5 187.47 677.59 165.01 677.59 120.08"/><polygon class="cls-25" points="663.63 173.09 715.59 143.09 767.56 173.09 767.56 233.1 715.59 263.11 663.63 233.1 663.63 173.09"/><polygon class="cls-26" points="585.63 53.37 637.6 23.37 689.56 53.37 689.56 113.38 637.6 143.38 585.63 113.38 585.63 53.37"/><polygon class="cls-27" points="741.62 232.78 793.59 202.78 845.56 232.78 845.56 292.79 793.59 322.79 741.62 292.79 741.62 232.78"/><polygon class="cls-28" points="455.3 -52.79 507.26 -82.79 559.23 -52.79 559.23 7.21 507.26 37.22 455.3 7.21 455.3 -52.79"/><polygon class="cls-29" points="716.5 -82.99 768.47 -113 820.43 -82.99 820.43 -22.99 768.47 7.02 716.5 -22.99 716.5 -82.99"/><polygon class="cls-30" points="637.79 202.72 684.15 175.96 730.52 202.72 730.52 256.26 684.15 283.03 637.79 256.26 637.79 202.72"/></g><g class="cls-31"><path class="cls-32" d="M50.2,173.76A1.23,1.23,0,1,1,49,172.52,1.23,1.23,0,0,1,50.2,173.76Z"/><circle class="cls-32" cx="67.55" cy="173.76" r="1.23"/><path class="cls-32" d="M87.37,173.76a1.24,1.24,0,1,1-1.24-1.24A1.24,1.24,0,0,1,87.37,173.76Z"/><circle class="cls-32" cx="104.72" cy="173.76" r="1.23"/><circle class="cls-32" cx="123.3" cy="173.76" r="1.23"/><path class="cls-32" d="M59.5,187.91a1.24,1.24,0,1,1-1.24-1.23A1.24,1.24,0,0,1,59.5,187.91Z"/><path class="cls-32" d="M78.08,187.91a1.24,1.24,0,1,1-1.24-1.23A1.24,1.24,0,0,1,78.08,187.91Z"/><path class="cls-32" d="M96.66,187.91a1.24,1.24,0,1,1-1.24-1.23A1.23,1.23,0,0,1,96.66,187.91Z"/><path class="cls-32" d="M115.24,187.91a1.24,1.24,0,1,1-1.23-1.23A1.23,1.23,0,0,1,115.24,187.91Z"/><path class="cls-32" d="M50.2,202.14A1.23,1.23,0,1,1,49,200.9,1.23,1.23,0,0,1,50.2,202.14Z"/><path class="cls-32" d="M68.79,202.14a1.24,1.24,0,1,1-1.24-1.24A1.24,1.24,0,0,1,68.79,202.14Z"/><path class="cls-32" d="M87.37,202.14a1.24,1.24,0,1,1-1.24-1.24A1.24,1.24,0,0,1,87.37,202.14Z"/><path class="cls-32" d="M106,202.14a1.24,1.24,0,1,1-1.23-1.24A1.23,1.23,0,0,1,106,202.14Z"/><path class="cls-32" d="M124.53,202.14a1.24,1.24,0,1,1-1.23-1.24A1.23,1.23,0,0,1,124.53,202.14Z"/><path class="cls-32" d="M59.5,216.29a1.24,1.24,0,1,1-1.24-1.23A1.24,1.24,0,0,1,59.5,216.29Z"/><path class="cls-32" d="M78.08,216.29a1.24,1.24,0,1,1-1.24-1.23A1.24,1.24,0,0,1,78.08,216.29Z"/><path class="cls-32" d="M96.66,216.29a1.24,1.24,0,1,1-1.24-1.23A1.23,1.23,0,0,1,96.66,216.29Z"/><path class="cls-32" d="M115.24,216.29a1.24,1.24,0,1,1-1.23-1.23A1.23,1.23,0,0,1,115.24,216.29Z"/><path class="cls-32" d="M50.2,230.52A1.23,1.23,0,1,1,49,229.28,1.23,1.23,0,0,1,50.2,230.52Z"/><path class="cls-32" d="M68.79,230.52a1.24,1.24,0,1,1-1.24-1.24A1.24,1.24,0,0,1,68.79,230.52Z"/><path class="cls-32" d="M87.37,230.52a1.24,1.24,0,1,1-1.24-1.24A1.24,1.24,0,0,1,87.37,230.52Z"/><path class="cls-32" d="M106,230.52a1.24,1.24,0,1,1-1.23-1.24A1.23,1.23,0,0,1,106,230.52Z"/><path class="cls-32" d="M124.53,230.52a1.24,1.24,0,1,1-1.23-1.24A1.23,1.23,0,0,1,124.53,230.52Z"/><path class="cls-32" d="M59.5,244.67a1.24,1.24,0,1,1-1.24-1.23A1.24,1.24,0,0,1,59.5,244.67Z"/><path class="cls-32" d="M78.08,244.67a1.24,1.24,0,1,1-1.24-1.23A1.24,1.24,0,0,1,78.08,244.67Z"/><circle class="cls-32" cx="95.42" cy="244.67" r="1.23"/><path class="cls-32" d="M115.24,244.67a1.24,1.24,0,1,1-1.23-1.23A1.23,1.23,0,0,1,115.24,244.67Z"/></g><path class="cls-32" d="M615.32,23.49A1.29,1.29,0,1,1,614,22.2,1.29,1.29,0,0,1,615.32,23.49Z"/><path class="cls-32" d="M634.73,23.49a1.29,1.29,0,1,1-1.29-1.29A1.29,1.29,0,0,1,634.73,23.49Z"/><path class="cls-32" d="M654.14,23.49a1.29,1.29,0,1,1-1.28-1.29A1.28,1.28,0,0,1,654.14,23.49Z"/><circle class="cls-32" cx="672.27" cy="23.49" r="1.29"/><circle class="cls-32" cx="691.68" cy="23.49" r="1.29"/><path class="cls-32" d="M625,38.27A1.29,1.29,0,1,1,623.73,37,1.28,1.28,0,0,1,625,38.27Z"/><path class="cls-32" d="M644.44,38.27A1.29,1.29,0,1,1,643.15,37,1.29,1.29,0,0,1,644.44,38.27Z"/><path class="cls-32" d="M663.85,38.27A1.29,1.29,0,1,1,662.56,37,1.29,1.29,0,0,1,663.85,38.27Z"/><path class="cls-32" d="M683.27,38.27A1.29,1.29,0,1,1,682,37,1.29,1.29,0,0,1,683.27,38.27Z"/><path class="cls-32" d="M615.32,53.14A1.29,1.29,0,1,1,614,51.85,1.29,1.29,0,0,1,615.32,53.14Z"/><path class="cls-32" d="M634.73,53.14a1.29,1.29,0,1,1-1.29-1.29A1.29,1.29,0,0,1,634.73,53.14Z"/><path class="cls-32" d="M654.14,53.14a1.29,1.29,0,1,1-1.28-1.29A1.28,1.28,0,0,1,654.14,53.14Z"/><path class="cls-32" d="M673.56,53.14a1.29,1.29,0,1,1-1.29-1.29A1.29,1.29,0,0,1,673.56,53.14Z"/><path class="cls-32" d="M693,53.14a1.29,1.29,0,1,1-1.29-1.29A1.29,1.29,0,0,1,693,53.14Z"/><path class="cls-32" d="M625,67.93a1.29,1.29,0,1,1-1.29-1.29A1.29,1.29,0,0,1,625,67.93Z"/><path class="cls-32" d="M644.44,67.93a1.29,1.29,0,1,1-1.29-1.29A1.29,1.29,0,0,1,644.44,67.93Z"/><path class="cls-32" d="M663.85,67.93a1.29,1.29,0,1,1-1.29-1.29A1.29,1.29,0,0,1,663.85,67.93Z"/><path class="cls-32" d="M683.27,67.93A1.29,1.29,0,1,1,682,66.64,1.29,1.29,0,0,1,683.27,67.93Z"/><path class="cls-32" d="M615.32,82.79A1.29,1.29,0,1,1,614,81.5,1.29,1.29,0,0,1,615.32,82.79Z"/><path class="cls-32" d="M634.73,82.79a1.29,1.29,0,1,1-1.29-1.29A1.29,1.29,0,0,1,634.73,82.79Z"/><path class="cls-32" d="M654.14,82.79a1.29,1.29,0,1,1-1.28-1.29A1.28,1.28,0,0,1,654.14,82.79Z"/><path class="cls-32" d="M673.56,82.79a1.29,1.29,0,1,1-1.29-1.29A1.29,1.29,0,0,1,673.56,82.79Z"/><path class="cls-32" d="M693,82.79a1.29,1.29,0,1,1-1.29-1.29A1.29,1.29,0,0,1,693,82.79Z"/><path class="cls-32" d="M625,97.58a1.29,1.29,0,1,1-1.29-1.29A1.29,1.29,0,0,1,625,97.58Z"/><path class="cls-32" d="M644.44,97.58a1.29,1.29,0,1,1-1.29-1.29A1.29,1.29,0,0,1,644.44,97.58Z"/><path class="cls-32" d="M663.85,97.58a1.29,1.29,0,1,1-1.29-1.29A1.29,1.29,0,0,1,663.85,97.58Z"/><path class="cls-32" d="M683.27,97.58A1.29,1.29,0,1,1,682,96.29,1.29,1.29,0,0,1,683.27,97.58Z"/><path class="cls-32" d="M333.05,393.47a1.47,1.47,0,1,1-1.47-1.47A1.46,1.46,0,0,1,333.05,393.47Z"/><path class="cls-32" d="M355.15,393.47a1.47,1.47,0,1,1-1.47-1.47A1.46,1.46,0,0,1,355.15,393.47Z"/><path class="cls-32" d="M377.25,393.47a1.47,1.47,0,1,1-1.47-1.47A1.46,1.46,0,0,1,377.25,393.47Z"/><path class="cls-32" d="M399.34,393.47a1.47,1.47,0,0,1-2.93,0,1.47,1.47,0,1,1,2.93,0Z"/><path class="cls-32" d="M421.44,393.47A1.47,1.47,0,1,1,420,392,1.46,1.46,0,0,1,421.44,393.47Z"/><path class="cls-32" d="M344.1,410.3a1.47,1.47,0,1,1-1.47-1.47A1.47,1.47,0,0,1,344.1,410.3Z"/><path class="cls-32" d="M366.2,410.3a1.47,1.47,0,1,1-1.47-1.47A1.47,1.47,0,0,1,366.2,410.3Z"/><path class="cls-32" d="M388.3,410.3a1.47,1.47,0,1,1-1.47-1.47A1.47,1.47,0,0,1,388.3,410.3Z"/><path class="cls-32" d="M410.39,410.3a1.47,1.47,0,1,1-1.46-1.47A1.46,1.46,0,0,1,410.39,410.3Z"/><path class="cls-32" d="M333.05,427.22a1.47,1.47,0,1,1-1.47-1.47A1.47,1.47,0,0,1,333.05,427.22Z"/><path class="cls-32" d="M355.15,427.22a1.47,1.47,0,1,1-1.47-1.47A1.47,1.47,0,0,1,355.15,427.22Z"/><path class="cls-32" d="M377.25,427.22a1.47,1.47,0,1,1-1.47-1.47A1.47,1.47,0,0,1,377.25,427.22Z"/><path class="cls-32" d="M399.34,427.22a1.47,1.47,0,1,1-1.46-1.47A1.46,1.46,0,0,1,399.34,427.22Z"/><path class="cls-32" d="M421.44,427.22a1.47,1.47,0,1,1-1.46-1.47A1.46,1.46,0,0,1,421.44,427.22Z"/><path class="cls-32" d="M344.1,444.05a1.47,1.47,0,1,1-1.47-1.47A1.47,1.47,0,0,1,344.1,444.05Z"/><path class="cls-32" d="M366.2,444.05a1.47,1.47,0,1,1-1.47-1.47A1.47,1.47,0,0,1,366.2,444.05Z"/><path class="cls-32" d="M388.3,444.05a1.47,1.47,0,1,1-1.47-1.47A1.47,1.47,0,0,1,388.3,444.05Z"/><path class="cls-32" d="M410.39,444.05a1.47,1.47,0,1,1-1.46-1.47A1.46,1.46,0,0,1,410.39,444.05Z"/><path class="cls-32" d="M333.05,461a1.47,1.47,0,1,1-1.47-1.47A1.47,1.47,0,0,1,333.05,461Z"/><path class="cls-32" d="M355.15,461a1.47,1.47,0,1,1-1.47-1.47A1.47,1.47,0,0,1,355.15,461Z"/><path class="cls-32" d="M377.25,461a1.47,1.47,0,1,1-1.47-1.47A1.47,1.47,0,0,1,377.25,461Z"/><path class="cls-32" d="M399.34,461a1.47,1.47,0,1,1-1.46-1.47A1.46,1.46,0,0,1,399.34,461Z"/><path class="cls-32" d="M421.44,461A1.47,1.47,0,1,1,420,459.5,1.46,1.46,0,0,1,421.44,461Z"/><path class="cls-32" d="M344.1,477.8a1.47,1.47,0,1,1-1.47-1.46A1.47,1.47,0,0,1,344.1,477.8Z"/><path class="cls-32" d="M366.2,477.8a1.47,1.47,0,1,1-1.47-1.46A1.47,1.47,0,0,1,366.2,477.8Z"/><path class="cls-32" d="M388.3,477.8a1.47,1.47,0,1,1-1.47-1.46A1.47,1.47,0,0,1,388.3,477.8Z"/><path class="cls-32" d="M410.39,477.8a1.47,1.47,0,1,1-1.46-1.46A1.46,1.46,0,0,1,410.39,477.8Z"/><circle class="cls-33" cx="725.62" cy="486.64" r="102.39" transform="translate(-131.58 655.62) rotate(-45)"/><circle class="cls-21" cx="715.66" cy="482.33" r="144.13"/><circle class="cls-21" cx="715.66" cy="482.33" r="129.89" transform="translate(-131.45 647.32) rotate(-45)"/><circle class="cls-21" cx="715.66" cy="482.33" r="115.69"/><circle class="cls-34" cx="54.37" cy="520.42" r="102.39"/><circle class="cls-33" cx="525.34" cy="63.74" r="33.88" transform="translate(342.61 560.39) rotate(-76.72)"/></g></g></g></svg>