<svg xmlns="http://www.w3.org/2000/svg" xmlns:xlink="http://www.w3.org/1999/xlink" viewBox="0 0 916.35 749.3"><defs><style>.cls-1{fill:#6366f1;}.cls-2{fill:url(#linear-gradient);}.cls-3{fill:url(#linear-gradient-2);}.cls-4{fill:url(#linear-gradient-3);}.cls-5{fill:url(#linear-gradient-4);}.cls-6{fill:url(#linear-gradient-5);}.cls-7{fill:url(#linear-gradient-6);}</style><linearGradient id="linear-gradient" x1="664.49" y1="473.96" x2="470.3" y2="668.15" gradientUnits="userSpaceOnUse"><stop offset="0.01" stop-color="#ff00d5"/><stop offset="0.51" stop-color="#b200bf"/><stop offset="1" stop-color="#6b00aa"/></linearGradient><linearGradient id="linear-gradient-2" x1="512.33" y1="6.85" x2="183.4" y2="335.78" xlink:href="#linear-gradient"/><linearGradient id="linear-gradient-3" x1="824.47" y1="480.17" x2="722.22" y2="582.42" xlink:href="#linear-gradient"/><linearGradient id="linear-gradient-4" x1="817.06" y1="271.6" x2="744.65" y2="344.01" xlink:href="#linear-gradient"/><linearGradient id="linear-gradient-5" x1="903.97" y1="381.17" x2="850.73" y2="434.42" xlink:href="#linear-gradient"/><linearGradient id="linear-gradient-6" x1="875.35" y1="192.3" x2="840.35" y2="227.3" xlink:href="#linear-gradient"/></defs><g id="Layer_2" data-name="Layer 2"><g id="Layer_1-2" data-name="Layer 1"><path class="cls-1" d="M221,110.3h-.69a69.17,69.17,0,0,1,48.92,20.28L464.17,333.31a13.84,13.84,0,0,0,20.49,0L668.53,142C600.43,56.24,495.6.91,377.75,0,172.19-1.56,2.89,163.78,0,369.33c-2.91,209.35,166,380,374.78,380a373.56,373.56,0,0,0,252.53-97.81V391.83A6.92,6.92,0,0,0,615.54,387L495.2,525.17a27.65,27.65,0,0,1-41.7,0L333.15,387a6.91,6.91,0,0,0-11.8,4.88v268c-74.56,0-135-50-135-125V145A34.67,34.67,0,0,1,221,110.3Z"/><rect class="cls-1" x="708.35" y="465.3" width="131" height="131" rx="21.13"/><rect class="cls-1" x="731.35" y="258.3" width="99" height="99" rx="19.16"/><rect class="cls-1" x="839.35" y="369.3" width="77" height="77" rx="13.49"/><rect class="cls-1" x="829.35" y="181.3" width="57" height="57" rx="10.44"/><path class="cls-2" d="M474.76,552.1c-1.27,0-2.48-.29-3.74-.4a542.61,542.61,0,0,1,37.42,154.59,356.79,356.79,0,0,0,101.91-62.45v-224L508.68,536.66A44.93,44.93,0,0,1,474.76,552.1Z"/><path class="cls-3" d="M375,17.45c-137.74,0-257.45,78.39-317.06,192.86a544.94,544.94,0,0,1,110.41,33.55V145.29c0-28.42,22.71-51.86,51.12-52.23A87.13,87.13,0,0,1,282,118.68L474.54,319,645.35,141.26A355.38,355.38,0,0,0,375,17.45Z"/><path class="cls-4" d="M817.56,477.3H729.11a9.79,9.79,0,0,0-9.76,9.76v88.46a9.81,9.81,0,0,0,9.78,9.78h88.45a9.8,9.8,0,0,0,9.77-9.77V487.08A9.81,9.81,0,0,0,817.56,477.3Z"/><path class="cls-5" d="M750.15,346.3h61.4a7.82,7.82,0,0,0,7.8-7.8V277.1a7.83,7.83,0,0,0-7.81-7.8H750.18a7.85,7.85,0,0,0-7.83,7.84v61.35A7.83,7.83,0,0,0,750.15,346.3Z"/><path class="cls-6" d="M902.22,380.3H852.49a2.14,2.14,0,0,0-2.14,2.14v50.71a2.15,2.15,0,0,0,2.14,2.15h49.73a2.14,2.14,0,0,0,2.13-2.13V382.42A2.13,2.13,0,0,0,902.22,380.3Z"/><rect class="cls-7" x="840.35" y="192.3" width="35" height="35"/></g></g></svg>